<mxfile host="65bd71144e">
    <diagram id="GD7tqIMT2kq8bYzvoAEr" name="Page-1">
        <mxGraphModel dx="982" dy="765" grid="1" gridSize="10" guides="1" tooltips="1" connect="1" arrows="1" fold="1" page="1" pageScale="1" pageWidth="850" pageHeight="1100" math="0" shadow="0">
            <root>
                <mxCell id="0"/>
                <mxCell id="1" parent="0"/>
                <mxCell id="2" value="&amp;lt;&amp;lt;device&amp;gt;&amp;gt;&lt;br&gt;serveris" style="verticalAlign=top;align=center;shape=cube;size=10;direction=south;fontStyle=0;html=1;boundedLbl=1;spacingLeft=5;container=0;" vertex="1" parent="1">
                    <mxGeometry x="100" y="180" width="260" height="430" as="geometry"/>
                </mxCell>
                <mxCell id="10" value="&amp;lt;&amp;lt;device&amp;gt;&amp;gt;&lt;br&gt;maršrutizatorius" style="verticalAlign=top;align=center;shape=cube;size=10;direction=south;fontStyle=0;html=1;boundedLbl=1;spacingLeft=5;container=0;" vertex="1" parent="1">
                    <mxGeometry x="430" y="486" width="210" height="70" as="geometry"/>
                </mxCell>
                <mxCell id="11" value="" style="group" vertex="1" connectable="0" parent="1">
                    <mxGeometry x="120" y="460" width="210" height="130" as="geometry"/>
                </mxCell>
                <mxCell id="8" value="&amp;lt;&amp;lt;device&amp;gt;&amp;gt;&lt;br&gt;php serveris" style="verticalAlign=top;align=center;shape=cube;size=10;direction=south;fontStyle=0;html=1;boundedLbl=1;spacingLeft=5;container=0;" vertex="1" parent="11">
                    <mxGeometry width="210" height="130" as="geometry"/>
                </mxCell>
                <mxCell id="9" value="apache2" style="shape=module;align=left;spacingLeft=20;align=center;verticalAlign=middle;" vertex="1" parent="11">
                    <mxGeometry x="30" y="60" width="140" height="50" as="geometry"/>
                </mxCell>
                <mxCell id="12" value="" style="group" vertex="1" connectable="0" parent="1">
                    <mxGeometry x="120" y="250" width="210" height="130" as="geometry"/>
                </mxCell>
                <mxCell id="5" value="&amp;lt;&amp;lt;device&amp;gt;&amp;gt;&lt;br&gt;Duomenų bazė" style="verticalAlign=top;align=center;shape=cube;size=10;direction=south;fontStyle=0;html=1;boundedLbl=1;spacingLeft=5;container=0;" vertex="1" parent="12">
                    <mxGeometry width="210" height="130" as="geometry"/>
                </mxCell>
                <mxCell id="7" value="MySQL" style="shape=module;align=left;spacingLeft=20;align=center;verticalAlign=middle;" vertex="1" parent="12">
                    <mxGeometry x="30" y="60" width="140" height="50" as="geometry"/>
                </mxCell>
                <mxCell id="13" value="" style="edgeStyle=none;html=1;entryX=1.007;entryY=0.5;entryDx=0;entryDy=0;entryPerimeter=0;startArrow=classic;startFill=1;" edge="1" parent="1" source="8" target="5">
                    <mxGeometry relative="1" as="geometry"/>
                </mxCell>
                <mxCell id="14" style="edgeStyle=none;html=1;entryX=0;entryY=0;entryDx=40;entryDy=210;entryPerimeter=0;startArrow=classic;startFill=1;" edge="1" parent="1" source="8" target="10">
                    <mxGeometry relative="1" as="geometry"/>
                </mxCell>
                <mxCell id="15" value="&amp;lt;&amp;lt;device&amp;gt;&amp;gt;&lt;br&gt;Naudotojas" style="verticalAlign=top;align=center;shape=cube;size=10;direction=south;fontStyle=0;html=1;boundedLbl=1;spacingLeft=5;container=0;" vertex="1" parent="1">
                    <mxGeometry x="720" y="390" width="260" height="220" as="geometry"/>
                </mxCell>
                <mxCell id="16" value="" style="group" vertex="1" connectable="0" parent="1">
                    <mxGeometry x="745" y="297" width="210" height="130" as="geometry"/>
                </mxCell>
                <mxCell id="23" value="" style="group" vertex="1" connectable="0" parent="16">
                    <mxGeometry x="-5" y="160" width="210" height="130" as="geometry"/>
                </mxCell>
                <mxCell id="17" value="&amp;lt;&amp;lt;device&amp;gt;&amp;gt;&lt;br&gt;kompiuterinis įrenginys" style="verticalAlign=top;align=center;shape=cube;size=10;direction=south;fontStyle=0;html=1;boundedLbl=1;spacingLeft=5;container=0;" vertex="1" parent="23">
                    <mxGeometry width="210" height="130" as="geometry"/>
                </mxCell>
                <mxCell id="18" value="naršyklė" style="shape=module;align=left;spacingLeft=20;align=center;verticalAlign=middle;" vertex="1" parent="23">
                    <mxGeometry x="30" y="60" width="140" height="50" as="geometry"/>
                </mxCell>
                <mxCell id="24" value="" style="edgeStyle=none;html=1;startArrow=classic;startFill=1;" edge="1" parent="1" source="10" target="17">
                    <mxGeometry relative="1" as="geometry"/>
                </mxCell>
            </root>
        </mxGraphModel>
    </diagram>
</mxfile>